<?xml version="1.0" encoding="utf-8"?>
<!-- Generator: Adobe Illustrator 19.0.0, SVG Export Plug-In . SVG Version: 6.00 Build 0)  -->
<svg version="1.1" id="Layer_1" xmlns="http://www.w3.org/2000/svg" xmlns:xlink="http://www.w3.org/1999/xlink" x="0px" y="0px"
	 viewBox="0 0 30 30" style="enable-background:new 0 0 30 30;" xml:space="preserve">
<style type="text/css">
	.st0{fill:#183253;}
	.st1{fill:none;stroke:#FFFFFF;stroke-width:0.5;stroke-miterlimit:10;}
</style>
<path id="XMLID_2_" class="st0" d="M10,14.3H6.8c-2.8,0-5-2.2-5-5V6.1c0-2.8,2.2-5,5-5H10c2.8,0,5,2.2,5,5v3.2
	C15,12.1,12.8,14.3,10,14.3z"/>
<path id="XMLID_3_" class="st0" d="M10,28.9H6.8c-2.8,0-5-2.2-5-5v-3.2c0-2.8,2.2-5,5-5H10c2.8,0,5,2.2,5,5v3.2
	C15,26.6,12.8,28.9,10,28.9z"/>
<path id="XMLID_4_" class="st0" d="M29.6,6.1v3.2c0,2.8-2.2,5-5,5h-3.2c-2.8,0-5-2.2-5-5V6.1c0-2.8,2.2-5,5-5h3.2
	C27.3,1.1,29.6,3.4,29.6,6.1z"/>
<rect id="XMLID_5_" x="3.3" y="5.6" transform="matrix(0.6848 0.7288 -0.7288 0.6848 8.4379 -3.7741)" class="st1" width="10.6" height="4.6"/>
<circle id="XMLID_6_" class="st1" cx="7.6" cy="7" r="1.4"/>
<path id="XMLID_7_" class="st1" d="M9.4,9.9L7,7.3c-0.2-0.2-0.2-0.5,0-0.7l0.2-0.2c0.2-0.2,0.5-0.2,0.7,0L10.4,9
	c0.2,0.2,0.2,0.5,0,0.7l-0.2,0.2C9.9,10.1,9.6,10.1,9.4,9.9z"/>
<path id="XMLID_8_" class="st1" d="M20.9,8.9l-2.6-2.8l3.4-3.2l2.6,2.8C25,6.4,25,7.6,24.3,8.2L23.5,9C22.7,9.7,21.6,9.6,20.9,8.9z"
	/>
<rect id="XMLID_9_" x="23" y="9.4" transform="matrix(0.6833 0.7301 -0.7301 0.6833 15.568 -15.3529)" class="st1" width="4.9" height="1.8"/>
<polygon id="XMLID_10_" class="st1" points="3.1,25 11.5,17.3 13.5,19.6 5.2,27.3 "/>
<line id="XMLID_12_" class="st1" x1="4.1" y1="26.1" x2="12.5" y2="18.4"/>
<path id="XMLID_11_" class="st1" d="M10.1,25.8l-0.9-1c-0.3-0.3-0.3-0.9,0-1.2h0c0.3-0.3,0.9-0.3,1.2,0l0.9,1c0.3,0.3,0.3,0.9,0,1.2
	l0,0C11,26.2,10.4,26.1,10.1,25.8z"/>
</svg>
